<svg fill="none" height="24" viewBox="0 0 150 24" width="150" xmlns="http://www.w3.org/2000/svg" xmlns:xlink="http://www.w3.org/1999/xlink"><clipPath id="a"><path d="m0 0h40.8727v24h-40.8727z"/></clipPath><g fill="#000"><path d="m50.625 19.928v-16.45778h3.0094v14.10668h7.2885v2.3511z"/><path d="m65.3143 6.45614c-.5486 0-1.0031-.16458-1.3636-.49374-.3449-.32915-.5173-.74451-.5173-1.24609 0-.50157.1724-.90909.5173-1.22258.3605-.32915.815-.49373 1.3636-.49373s.9953.16458 1.3402.49373c.3605.31349.5407.72101.5407 1.22258 0 .50158-.1802.91694-.5407 1.24609-.3449.32916-.7916.49374-1.3402.49374zm-1.5047 13.47186v-11.6615h3.0094v11.6615z"/><path d="m70.9402 19.928-1.9806-11.6615h2.9389l1.3512 8.8167 4.8461-8.8167h3.45l-6.7413 11.6615z"/><path d="m87.4115 20.2102c-1.1756 0-2.2179-.2508-3.127-.7524s-1.6223-1.2069-2.1395-2.116c-.5173-.9091-.7759-1.9593-.7759-3.1505 0-1.2069.2508-2.2806.7524-3.221.5172-.9405 1.2225-1.66931 2.116-2.18656.9091-.53292 1.9749-.79938 3.1975-.79938 1.1442 0 2.1552.25079 3.0329.75236.8778.50157 1.5596 1.19123 2.0455 2.06898.5016.8621.7523 1.826.7523 2.8919 0 .1724-.0078.3526-.0235.5407 0 .1881-.0078.384-.0235.5878h-8.8637c.0627.9091.3762 1.6223.9405 2.1395.5799.5173 1.2774.7759 2.0925.7759.6112 0 1.1206-.1332 1.5282-.3997.4232-.2821.7367-.6426.9404-1.0815h3.0565c-.2195.7367-.5878 1.4107-1.1051 2.0219-.5015.5957-1.1285 1.0659-1.8808 1.4107-.7367.3448-1.5753.5173-2.5157.5173zm.0235-9.7807c-.7367 0-1.3872.2116-1.9515.6348-.5642.4076-.9247 1.0345-1.0815 1.8809h5.8073c-.047-.768-.3292-1.3793-.8464-1.8339-.5173-.4545-1.1599-.6818-1.9279-.6818z"/><path d="m95.7999 19.928v-16.45778h5.6191c1.928 0 3.511.34483 4.749 1.03449 1.254.67399 2.179 1.63011 2.775 2.86836.611 1.22258.917 2.66463.917 4.32603 0 1.6615-.306 3.1113-.917 4.3496-.596 1.2226-1.521 2.1787-2.775 2.8683-1.238.674-2.821 1.011-4.749 1.011zm3.0095-2.5862h2.4686c1.379 0 2.469-.2194 3.268-.6583.799-.4546 1.372-1.0972 1.716-1.9279.345-.8464.518-1.8652.518-3.0565 0-1.1755-.173-2.18651-.518-3.03291-.344-.84641-.917-1.49688-1.716-1.95143s-1.889-.68182-3.268-.68182h-2.4686z"/><path d="m117.408 20.2102c-1.128 0-2.147-.2587-3.056-.7759-.894-.5173-1.607-1.2304-2.14-2.1395-.517-.9248-.776-1.9906-.776-3.1975s.267-2.2649.8-3.174c.533-.92481 1.246-1.64582 2.139-2.16307.909-.51724 1.928-.77587 3.057-.77587 1.113 0 2.116.25863 3.009.77587.909.51725 1.622 1.23826 2.14 2.16307.533.9091.799 1.9671.799 3.174s-.266 2.2727-.799 3.1975c-.518.9091-1.231 1.6222-2.14 2.1395-.909.5172-1.92.7759-3.033.7759zm0-2.6098c.784 0 1.466-.2899 2.046-.8699.58-.5956.87-1.4734.87-2.6332 0-1.1599-.29-2.0298-.87-2.6098-.58-.5956-1.254-.8934-2.022-.8934-.8 0-1.489.2978-2.069.8934-.564.58-.847 1.4499-.847 2.6098 0 1.1598.283 2.0376.847 2.6332.58.58 1.262.8699 2.045.8699z"/><path d="m131.408 20.2102c-1.191 0-2.242-.2587-3.151-.7759-.909-.5173-1.63-1.2383-2.163-2.163-.517-.9248-.776-1.9828-.776-3.174 0-1.1913.259-2.2493.776-3.174.533-.92481 1.254-1.64582 2.163-2.16307.909-.51724 1.96-.77587 3.151-.77587 1.489 0 2.743.39186 3.762 1.17556 1.018.76803 1.669 1.83388 1.951 3.19748h-3.174c-.157-.5642-.47-1.0031-.94-1.3166-.455-.3291-.996-.4937-1.623-.4937-.83 0-1.536.3135-2.116.9404-.58.627-.87 1.4969-.87 2.6098 0 1.1128.29 1.9827.87 2.6097s1.286.9404 2.116.9404c.627 0 1.168-.1567 1.623-.4702.47-.3135.783-.7602.94-1.3401h3.174c-.282 1.3166-.933 2.3746-1.951 3.174-1.019.7994-2.273 1.1991-3.762 1.1991z"/><path d="m144.424 20.2102c-1.035 0-1.944-.1646-2.727-.4938-.784-.3448-1.411-.815-1.881-1.4106-.471-.5957-.753-1.2853-.847-2.069h3.033c.094.4545.345.8464.753 1.1755.423.3135.964.4703 1.622.4703s1.136-.1333 1.434-.3997c.314-.2665.47-.5721.47-.917 0-.5015-.219-.8385-.658-1.0109-.439-.1881-1.05-.3684-1.834-.5408-.502-.1097-1.011-.243-1.528-.3997s-.995-.3527-1.434-.5878c-.424-.2508-.768-.5642-1.035-.9404-.266-.3919-.4-.8699-.4-1.4342 0-1.0345.408-1.9044 1.223-2.60973.831-.70534 1.991-1.05801 3.48-1.05801 1.379 0 2.476.32132 3.291.96396.831.64264 1.325 1.52818 1.481 2.65678h-2.844c-.173-.8621-.823-1.2931-1.952-1.2931-.564 0-1.003.1097-1.316.3291-.298.2195-.447.4938-.447.8229 0 .3448.227.6191.682.8229.454.2038 1.058.3919 1.81.5643.815.1881 1.56.3997 2.234.6348.689.2194 1.238.5564 1.645 1.011.408.4388.612 1.0736.612 1.9044.015.721-.173 1.3714-.565 1.9514-.391.5799-.956 1.0345-1.692 1.3636-.737.3292-1.607.4938-2.61.4938z"/></g><g clip-path="url(#a)"><path clip-rule="evenodd" d="m22.4085 23.042 8.009-13.81896-9.6054.06659 4.6396-8.00549 9.4951.12401 4.5683 7.96444-7.9538 13.72371zm-3.9329-22.152648-8.009 13.818948 9.6055-.0665-4.6397 8.0054-9.49502-.124-4.56831-7.9644 7.95376-13.723697z" fill="#0094ff" fill-rule="evenodd"/></g></svg>